<svg xmlns="http://www.w3.org/2000/svg" width="41" height="34"><path fill="#fed136" d="M7.356-.1h26.908A4.036 4.036 0 0138.3 3.936v17.49c0 .472-.081.924-.23 1.345h.23v2.69h-4.036V3.937H7.356v21.526H3.32v-2.69h.23a4.03 4.03 0 01-.23-1.346V3.936A4.036 4.036 0 017.356-.1zM3.32 28.152H38.3a2.691 2.691 0 012.69 2.691c0 1.486-2.55 2.691-4.036 2.691H4.666c-1.486 0-4.036-1.205-4.036-2.69a2.691 2.691 0 012.69-2.692zm12.109 3.364c0 .371.602.673 1.345.673h8.072c.743 0 1.346-.302 1.346-.673 0-.372-.603-.673-1.346-.673h-8.072c-.743 0-1.345.301-1.345.673zm-3.652-15.832l1.894-1.903a1.336 1.336 0 011.894 0l2.483 2.494 8.002-8.038a1.335 1.335 0 011.894 0l1.895 1.902a1.35 1.35 0 010 1.903L19.42 22.506a1.335 1.335 0 01-1.65.194 1.334 1.334 0 01-1.259-.357l-4.735-4.756a1.35 1.35 0 010-1.903z"/></svg>